<svg width="59" height="48" fill="none" xmlns="http://www.w3.org/2000/svg"><path d="M20.062 40.687c.224.492.569.258.93.25.576-.016.928-.403 1.449-.628-.457-.138-.841-.258-1.25-.387-.128.266-.264.556-.408.854h-.128c-.048-.218-.112-.435-.128-.653-.016-.258-.104-.387-.377-.395-.152-.008-.304-.105-.512-.186-.152.404-.329.855-.537 1.411-.352-.612-.288-1.185-.256-1.741-.465-.266-.465-.266-.753.613-.056-.137-.152-.274-.16-.412-.032-.338-.168-.548-.529-.644-.288-.09-.384-.057-.392.258a7.59 7.59 0 01-.112 1.12c-.024.17-.128.33-.192.5h-.112c-.048-.153-.104-.306-.153-.46-.136-.459-.256-.927-.4-1.386-.056-.186-.144-.29-.384-.21-.16.057-.353.008-.617.008-.064.194-.16.46-.256.726l-.129.024c-.08-.234-.152-.468-.248-.701-.056-.138-.136-.259-.208-.388-.088.13-.168.267-.256.396a7.135 7.135 0 00-.144.266c-.16-.315-.28-.565-.417-.83-1.089-.041-.729.934-.977 1.483l-.128.024c-.088-.25-.216-.484-.248-.742-.04-.306.024-.613.016-.927 0-.105-.072-.202-.112-.306-.112.056-.28.08-.32.16-.097.243-.145.509-.297.791-.056-.226-.136-.452-.152-.677a59.651 59.651 0 01-.112-2.072c-.032-.742.224-1.097.929-1.363.264-.105.504-.29.777-.395.224-.089.504-.202.72-.145.577.137 1.146.322 1.69.556.448.194.881.306 1.378.315.464.008.928.177 1.377.338.328.121.6.21.945.024.176-.088.48-.056.68.033.481.201.954.16 1.45.088.777-.105 1.554-.145 2.339-.233.232-.025.472-.081.68-.178a8.145 8.145 0 001.001-.564c.2-.137.36-.347.553-.5.448-.371.953-.411 1.506-.258.192.056.424-.032.64-.048.128-.009.265-.025.393-.033.4-.032.8-.064 1.209-.088.344-.025.697-.113 1.017-.04.697.16 1.177-.235 1.666-.581.096-.065.12-.452.024-.548-.48-.492-.44-1.025-.257-1.605.209-.661.569-1.185 1.234-1.435.568-.218.745-.548.608-1.137a.328.328 0 00-.104-.153c-.248-.226-.488-.468-.76-.661-.097-.065-.28-.049-.409 0-.08.024-.184.177-.168.258.096.588-.369.96-.545 1.45-.176-.378-.44-.733-.344-1.168.064-.299-.072-.46-.312-.484-.153-.016-.337.121-.48.218a2.064 2.064 0 00-.425.37c-.12.146-.209.323-.345.54-.184-.362-.048-.709-.016-1.031.024-.218.168-.427.209-.645a.614.614 0 00-.089-.427c-.04-.057-.24-.017-.36.016-.256.072-.505.16-.785.258-.152-.476.184-.766.457-1.049.28-.29.624-.524 1.025-.846-.152-.08-.273-.137-.473-.242.409-.113.673-.226.953-.25.377-.024.465-.274.513-.548.192-1.185.689-2.226 1.385-3.177.248-.338.6-.596.89-.903.135-.137.295-.298.343-.468.353-1.33 1.274-2.128 2.435-2.725.032-.016.072-.032.088-.04-.112-1.04-.216-2.072-.328-3.12-.665-.355-.977-1.08-1.426-1.694-.04-.056-.08-.128-.136-.16-.56-.356-1.21-.63-1.674-1.081-.448-.436-.985-.573-1.505-.798-.44-.194-.881-.387-1.305-.613-.185-.097-.329-.274-.529-.452-.272-.08-.625-.16-.953-.29-.617-.242-1.201-.548-1.826-.75-.472-.153-.993-.169-1.482-.282-.2-.048-.384-.17-.568-.266-.064-.032-.128-.089-.192-.089-.673-.024-1.402.105-2.018-.096-.801-.266-1.65-.017-2.395-.371-.905-.436-1.842-.194-2.763-.258-.104-.008-.224.032-.32 0-1.09-.38-2.114.096-3.171.201-.273.024-.553.008-.833.016-.104 0-.209.017-.313.033-.873.153-1.753.306-2.618.475-.28.057-.561.162-.833.258-.657.226-1.346.355-1.986.67-1.09.54-2.275.886-3.332 1.507-.689.403-1.425.718-2.162 1.032-.2.089-.465.024-.697.024.088-.21.136-.467.288-.612.185-.186.465-.282.69-.436.103-.072.223-.177.263-.29.113-.306.289-.5.633-.532.112-.008.24-.121.304-.218.209-.346.449-.604.801-.548.225-.202.409-.355.585-.516.088-.08.16-.17.24-.258.048-.056.08-.161.144-.185.529-.242 1.057-.468 1.586-.71.112-.056.232-.12.328-.194.44-.33.985-.5 1.346-.983.096-.137.472-.089.72-.08.249 0 .393-.081.561-.283.168-.202.457-.363.713-.42.36-.072.729.065 1.017-.37.12-.186.56-.145.857-.234.152-.04.384-.089.432-.202.216-.467.6-.403.985-.419.232-.008.473-.088.705-.137.28-.056.569-.185.84-.17.273.025.465 0 .633-.217.04-.048.105-.113.16-.113.673-.024 1.234-.629 1.97-.387.08.024.193-.048.281-.08.617-.226 1.225-.468 1.842-.67a.924.924 0 01.553.017c.424.137.768 0 1.153-.17.216-.096.496-.056.745-.072.24-.016.48-.016.72-.033.048 0 .104-.056.152-.048.857.234 1.786-.435 2.62.226.095.08.335.04.48-.024.336-.145.624-.258.96.032.097.08.321.008.49.016.247.016.488.032.736.065.32.04.64.145.961.137.36-.008.665.024.953.282.168.145.457.201.697.21.408.007.792-.017 1.089.346.032.04.12.048.184.04.064 0 .16-.064.192-.04.393.33.905.25 1.346.42.288.112.536.314.809.459.072.04.184.032.264 0 .352-.121.568.04.705.347.128.29.312.427.64.435.16.008.417.113.465.242.136.347.368.411.688.411.096 0 .2.065.297.113 1.345.734 2.69 1.475 4.044 2.193 1.474.782 2.595 1.96 3.684 3.185.616.701 1.21 1.419 1.89 2.088-.136-.242-.305-.468-.409-.726-.08-.185-.168-.46-.088-.596.305-.524.64-1.04 1.025-1.508.216-.258.545-.306.873-.073.12.09.297.113.457.138.336.056.648.088.785.5.04.12.336.177.52.217.537.105.705.194.865.524-.633.282-.6.29-.128.87.889 1.09 1.465 2.307 1.225 3.774-.016.113.048.258.104.371.393.734.385 1.468-.032 2.185-.328.565-.6 1.185-1.33 1.387 1.306 3.588 1.298 7.152.033 10.748.937.16 1.65.653 2.258 1.322l.056.056a16.722 16.722 0 001.61 2.08c.296.323.392.903.448 1.38.072.66.024 1.338.016 2.015-.008.588.209.91.737 1.12.304.121.6.275.881.444.152.097.264.274.392.411-.023.024-.04.057-.063.08-.16-.031-.313-.056-.521-.096.032.089.032.153.064.17.344.257.689.515 1.05.757.488.339.367.887.496 1.379-.417-.37-1.09-.032-1.41-.597-.04-.072-.304-.008-.368-.008-.048.718-.088 1.387-.128 2.048-.032.016-.072.024-.105.04a42.275 42.275 0 00-.776-.91c-.08-.09-.257-.21-.28-.186-.113.089-.257.242-.24.347.04.274-.08.379-.297.492-.128.064-.216.217-.32.338-.097.113-.185.242-.273.363l-.12-.024c-.016-.202-.048-.403-.056-.605-.016-.29 0-.58-.016-.87-.024-.323-.216-.404-.48-.218-.065.048-.129.113-.2.12-.45.081-.457.081-.61.54-.08-.144-.143-.225-.175-.33-.129-.475.112-1.137.528-1.395.44-.266.505-1.04.28-1.403-.256-.41-.528-.806-.776-1.217-.209-.347-.305-.693-.169-1.113.145-.451-.104-.798-.56-.919-.721-.185-1.434-.379-2.186-.588-.297.427-.617.903-.953 1.37-.857 1.186-1.922 2.08-3.38 2.427-.184.04-.352.186-.513.29-.256.17-.496.38-.84.242-.056-.024-.177.04-.225.105-2.01 2.693-4.54 4.725-7.704 5.862-1.33.475-2.699.822-4.076 1.136-.48.105-1.025-.04-1.53-.129-.208-.04-.36-.08-.544.065-1.61 1.234-3.38 1.475-5.302.927-1.201-.338-2.402-.403-3.627-.048-.369.105-.793.008-1.186.008-.76-.008-1.513-.016-2.274-.016a.401.401 0 00-.192.048c-.937.565-1.954.21-2.94.25-1.105.049-1.97-.556-2.754-1.274-.297-.274-.257-.661.088-1.024a.68.68 0 00.152-.347c.056-.387.088-.782.128-1.177l.16-.024c.056.17.096.355.176.516.088.17.217.452.337.46.232.008.536-.065.536-.444 0-.145.096-.29.249-.46.08.178.152.355.232.549.336-.258.697-.484.985-.782.136-.145.128-.427.184-.645.088-.323.096-.685.497-.96.04.573.072 1.08.112 1.58.056.017.104.033.16.041.12-.226.232-.46.392-.766.104.25.176.427.256.613h.417c.088-.258.168-.5.288-.87.112.225.144.362.224.45.089.097.225.21.345.21.2.008.352-.096.344-.346-.008-.162.032-.331.048-.557.224.137.377.234.537.339.088-.161.176-.315.28-.5.72.379.288-.379.417-.532.256.016.456.032.648.04-.08-.17-.064-.387-.048-.605zm14.295-16.464c-.032-.008-.064-.016-.088-.032-.464.33-.929.67-1.441 1.032.112.323.2.677.368.992.184.355.44.67.304 1.113-.024.088.032.21.056.314.265-1.153.529-2.282.801-3.419z" fill="#20113D"/></svg>