<svg width="49" height="48" fill="none" xmlns="http://www.w3.org/2000/svg"><path d="M15.023 42.553c3.261-.772 5.323-2.937 7.413-5.238-.284-.08-.5-.148-.715-.203-2.87-.73-5.512-1.975-7.938-3.667a12.33 12.33 0 01-3.653-3.952 5.542 5.542 0 01-.31-.636c-.027-.054-.027-.122-.054-.311.917.284 1.78.555 2.629.826l.067-.068c-.094-.081-.175-.162-.27-.23-1.105-.718-2.183-1.462-3.302-2.138-1.28-.785-2.628-1.462-3.868-2.274-1.657-1.096-2.83-2.639-3.68-4.425a.824.824 0 01-.067-.244c-.013-.04 0-.095 0-.216 1.375.595 2.656 1.434 4.246 1.285-3.127-1.8-5.068-4.317-4.933-8.106 1.334 1.475 2.642 2.937 3.95 4.398l.093-.095c-.539-1.055-1.172-2.084-1.576-3.193a15.46 15.46 0 01-.81-3.492c-.134-1.177-.026-2.382-.026-3.573.067-.013.135-.013.189-.027.633 1.435 1.267 2.87 1.9 4.317.067 0 .135-.013.202-.013-.027-2.612.256-5.17 1.456-7.511a.67.67 0 01.161.013c0 .582.027 1.15 0 1.733-.148 2.855.944 5.291 2.575 7.51 1.091 1.476 2.44 2.707 3.895 3.817 1.914 1.462 4.057 2.53 6.2 3.586 1.994.975 3.746 2.3 5.39 3.79.998.906 2.036 1.759 3.06 2.638.283.244.566.515.89.812.525-1.218 1.01-2.354 1.496-3.505 1.172-2.733 2.938-5.034 5.121-7.023 1.739-1.584 3.504-3.113 5.243-4.683 2.359-2.138 3.828-4.79 4.3-7.957.175-1.124.094-2.3.134-3.438 0-.19 0-.392.068-.595.849 1.949 1.091 4.006 1.293 6.144.836-1.705 1.658-3.41 2.494-5.13.067.014.135.028.188.041-.094 1.746-.107 3.492-.31 5.224-.202 1.719-.593 3.41-.903 5.048.418-.65.903-1.394 1.47-2.246.04 1.664-.014 3.166-.715 4.587-.687 1.408-1.792 2.463-2.992 3.505.66.136 1.186-.094 1.698-.352.5-.243.957-.54 1.537-.88-.054.258-.081.434-.135.596-.728 1.976-1.86 3.681-3.558 4.94-1.038.785-2.143 1.475-3.167 2.26-.647.5-1.105.812-1.132 1.502.43-.149.849-.284 1.347-.447-.835 2.87-3.046 4.629-4.973 6.686.189.081.337.135.485.203.957.392 1.766.988 2.318 1.88.418.664.513 1.368.337 2.14-.054.23.081.54.23.744.458.703.525 1.42.12 2.151-.39.718-1.037 1.07-1.886 1.123.674-1.217.647-1.488-.27-2.138-.094.501-.188.975-.283 1.475-.606-.5-1.132-1.096-1.792-1.448-.674-.352-1.47-.446-2.278-.676.04.176.04.284.08.379.594 1.502 1.147 3.031 1.82 4.506.243.541.728 1.002 1.173 1.408.418.379.714.243.876-.312.108-.392.148-.798.216-1.19.067-.352.256-.501.498-.393.054.325.122.582.135.839.014.27.014.555-.04.812-.054.23-.203.447-.31.663.027.04.067.068.094.108.364-.243.741-.487 1.092-.744.175-.135.31-.311.471-.46.634-.582.944-.541 1.389.23-.243-.027-.459-.068-.688-.095-.04 1.002-1.091.988-1.523 1.665.512-.027.97-.068 1.429-.068.7 0 .984.325.849 1.042-.202-.487-.54-.42-.862-.284-.688.284-1.389.19-2.09.095-.768-.109-1.455 0-2.116.46-.43.311-.876.609-1.496.474-.134-.028-.377.419-.552.636-.283-.38-.27-.745.202-1.042.297-.19.647-.285.97-.42.203-.081.418-.149.593-.284.391-.298.391-.487.014-.785-.93-.758-1.86-1.502-2.79-2.26a.591.591 0 00-.256-.136c-1.227-.108-1.9-.92-2.413-1.908-.107-.216-.188-.514-.485-.325-.162.109-.337.434-.283.596.283 1.07.903 1.908 1.86 2.45.418-.068.499-1.097 1.092-.474-.054.23-.095.365-.121.5.161.028.336.095.498.082.27 0 .54-.054.809-.081l.04.175c-.188.095-.377.19-.633.325 1.294.068 1.294.068 1.348.758-.418-.406-.823-.081-1.227-.027-.916.108-1.55.541-1.887 1.448-.108.284-.404.487-.674.799.014.04.054.175.081.324-.58-.203-.714-.487-.431-1.001.216-.393.499-.758.755-1.137.229-.338.229-.622-.203-.812-.7-.311-1.293-.812-2.115-.893-.31-.027-.58-.447-.89-.717-.148.243-.35.527-.512.852-.472.961-1.267 1.543-2.264 1.814-3.14.866-6.106.379-8.869-1.34-.458-.27-.795-.69-1.253-1.096z" fill="#20113D"/></svg>