<svg width="56" height="48" fill="none" xmlns="http://www.w3.org/2000/svg"><path fill-rule="evenodd" clip-rule="evenodd" d="M38.826 21.161l.002.003c.502 1.038 1.005 2.075 1.527 3.159-.132.104-.266.212-.402.321-.306.247-.623.503-.953.745-.367.267-.73.538-1.094.81-.897.67-1.794 1.338-2.732 1.947-3.377 2.196-7.102 3.088-11.111 2.738-.98-.082-2.014-.422-2.426-.707.238-1.652.466-3.258.695-4.864l.001-.007a.956.956 0 00-.087-.023.96.96 0 01-.087-.023c-.09.182-.177.364-.266.545-.22.452-.439.902-.667 1.348-.594 1.178-.992 2.428-1.39 3.682-.112.35-.224.701-.34 1.051-.732 2.178-2.041 3.85-4.265 4.669-.11.046-.202.23-.248.367-.09.286-.169.575-.249.864-.107.39-.214.779-.345 1.158-.504 1.47-1.447 2.61-2.719 3.483-.567.386-1.135.782-1.675 1.204-.467.359-.448.515.01.873l.269.209c.287.22.57.438.829.683.42.404.613.919.457 1.507-.036.138-.247.322-.375.322-3.002.018-6.013.018-9.015.009-.11 0-.266-.037-.33-.11-.092-.113-.186-.225-.28-.337-.338-.402-.68-.808-.937-1.253-.165-.285-.183-.763-.073-1.085 1.061-3.244 2.425-6.323 4.997-8.684.11-.102.174-.322.183-.478.064-2.335.339-4.65.934-6.902.512-1.949 1.061-3.897 2.032-5.69 1.784-3.27 4.09-6 7.633-7.47 3.048-1.26 6.022-1.067 8.924.422.398.206.758.489 1.11.764.164.13.327.258.491.376-.33-.717-.906-1.305-1.528-1.848.586-.223 1.174-.44 1.762-.656 2.595-.956 5.17-1.904 7.445-3.433.1.35.2.703.298 1.059.127.457.255.916.389 1.376a.8.8 0 00.201.303c-.183-1.14-.183-2.279.248-3.326.402-.993.887-1.995 1.51-2.859 1.528-2.095 3.368-3.915 5.418-5.505.082-.064.165-.128.256-.193.147-.094.293-.194.439-.295C44 .922 44.716.43 45.626.612c1.502.294 2.756 1.084 3.616 2.38.247.368.53.625.924.763 1.025.358 1.794.974 2.288 1.976.18.366.438.69.697 1.015.124.156.25.312.365.474.238.33.284.606.019.992-.22.322-.33.754-.394 1.149-.082.469.1.772.595 1.03 1.29.66 2.04 2.14 1.327 3.639a11.1 11.1 0 00-.33.753c-.475 1.232-1.382 1.664-2.626 1.232l-.04-.013-.023-.008a2.173 2.173 0 01-.175-.062c-.23.322-.458.634-.705.965a1.576 1.576 0 00-.088-.099c-.031-.032-.05-.05-.05-.066.074-.79-.402-1.26-.933-1.737-2.48-2.243-5.519-1.839-7.597-.543.234-.047.465-.1.696-.15.438-.1.874-.197 1.318-.263 2.636-.368 4.924.818 6.141 3.189.842 1.636 1.437 3.345 1.29 5.238v.022c-.028.371-.057.775-.21 1.1-.53 1.139-.366 2.288-.073 3.418l.054.21c.275 1.075.557 2.177 1.081 3.126 2.023 3.649 2.188 7.591 2.041 11.59-.064 1.718-.613 3.243-2.023 4.355-.787.625-1.629 1.057-2.681.974a8.65 8.65 0 00-1.465 0c-.915.102-1.547-.358-2.087-1.001-.585-.69-.85-1.49-.686-2.39.046-.239.22-.533.421-.643.253-.135.438.052.625.242l.089.089c.282.274.654.475 1.01.667l.006.004c.311.165.476.027.512-.322.037-.413-.091-.763-.402-1.03-1.748-1.497-2.847-3.455-3.835-5.486a14.644 14.644 0 01-1.419-4.963c-.128-1.314.1-2.591.348-3.869.119-.579.238-1.167.274-1.764.083-1.186-.33-2.188-1.345-2.822-1.254-.78-2.37-1.718-3.268-2.895.01.028-.036.056-.082.083zm2.682 4.172c.53.432.723.929.613 1.544a67.65 67.65 0 01-.217 1.193c-.137.73-.274 1.46-.369 2.199-.31 2.49.266 4.843 1.227 7.113.174.413.192.744.009 1.158-.833 1.893-1.74 3.74-2.91 5.459-1.52 2.224-3.643 3.253-6.298 3.253-.157 0-.313.003-.468.005-.362.006-.723.012-1.088-.014a.734.734 0 01-.512-.276c-.851-1.158-.705-3.556.274-4.613.11-.12.357-.23.495-.184.104.037.178.197.246.344l.047.097c.037.076.065.16.092.243.045.138.09.275.182.373.165.193.449.469.632.432.192-.037.384-.377.466-.616.083-.23.055-.515.01-.754-.067-.336-.15-.67-.233-1.004-.146-.586-.292-1.17-.344-1.762-.247-2.656-.01-5.266 1.135-7.72.265-.56.567-1.13.96-1.608.413-.515.925-.965 1.447-1.37.535-.422 1.087-.821 1.64-1.221.373-.27.746-.54 1.115-.819.411-.314.819-.637 1.233-.965l.616-.487zm-19.671 6.535l-.712-.211c-.082.177-.16.357-.24.537-.134.306-.27.614-.42.915-.905 1.838-2.095 3.437-3.935 4.466-.146.083-.247.294-.302.469-.44 1.48-.988 2.895-2.004 4.09-.074.091-.138.257-.11.358.32 1.02.65 2.04 1.007 3.042.064.174.256.34.43.44.65.369 1.3.727 1.968 1.067.22.11.476.211.714.211 1.935.014 3.865.012 5.798.01h2.503a6.438 6.438 0 01-.16-.368c-.093-.23-.176-.436-.316-.588a6.811 6.811 0 00-1.162-1.02c-.396-.267-.825-.49-1.253-.71-.116-.06-.233-.12-.349-.182-.458-.248-.659-.615-.622-1.13.006-.123.02-.245.034-.368.007-.061.015-.122.02-.184.029-.278.063-.557.098-.836.08-.635.159-1.27.159-1.902 0-1.314-.586-2.445-1.419-3.438 1.446-1.084 1.73-2.619 1.867-4.2-.55-.158-1.07-.313-1.594-.468z" fill="#20113D"/></svg>