<svg width="33" height="56" fill="none" xmlns="http://www.w3.org/2000/svg"><path fill-rule="evenodd" clip-rule="evenodd" d="M15.944.008c.862-.05 1.685.131 2.532.434l-.08.24c-.061.19-.12.373-.2.547-.243.537-.49 1.073-.738 1.61-.248.537-.496 1.074-.74 1.61v.002c-.132.291-.196.432-.304.49-.102.056-.243.04-.517.006l-.05-.006c-.279-.033-.446-.155-.486-.434-.017-.117-.039-.235-.06-.353-.06-.328-.12-.656-.084-.975.088-.788.23-1.571.373-2.353V.824l.114-.628c.016-.074.152-.18.24-.189zM10.56 2.662c.53.809 1.049 1.6 1.59 2.376.2.295.47.557.91.377.671-.262.839-.442.639-1.163-.239-.877-.09-1.72.058-2.566v-.001l.046-.26a2.463 2.463 0 00-.024-.968c-.032-.147-.32-.368-.431-.344-1.223.312-2.293.926-3.315 1.746l.527.803zM7.422 8.913c.56.42 1.12.84 1.692 1.265-.192.943-.687 1.475-1.654 1.582-1.334.14-2.46-.418-3.474-1.254-.056-.049-.08-.23-.04-.311l.177-.407c.26-.596.52-1.192.805-1.773.077-.163.203-.3.323-.43.055-.06.11-.117.157-.176.678.504 1.345 1.003 2.014 1.504zm.358 5.01c-1.51-.385-2.971-.762-4.545-1.171-.033.19-.071.386-.11.586-.07.37-.144.755-.201 1.143-.055.367-.091.737-.128 1.115-.022.229-.045.46-.072.696 1.262.647 2.556.827 3.834.073.91-.524 1.27-1.393 1.222-2.442zm-5 4.343c-.24 1.295-.048 2.516.4 3.704.04.098.143.205.24.237 1.884.648 4.009-.647 4.304-2.393.04-.237.056-.491.04-.729-.096-1.04-.287-1.188-1.278-1.04l-.285.042c-.68.102-1.36.203-2.047.26-.302.023-.61-.008-.93-.041a13.27 13.27 0 00-.444-.04zm5.368 7.687c.639-1.394.439-2.393-.64-3.262-1.118.869-2.412 1.188-3.801 1.237-.096 0-.256.14-.28.246-.216 1.04.088 1.967.655 2.82.045.067.132.101.23.14.058.023.119.047.177.08l-.081.057c-.066.046-.13.091-.198.132-1.454.893-2.628 2.065-3.323 3.663-.91 2.106-1.238 4.278-.416 6.515.149.402.285.811.42 1.22h.001c.113.341.227.682.346 1.017.4 1.13.432 2.294.112 3.425-.942 3.303-.056 6.335 1.198 9.326.11.25.29.476.463.694l.009.01c.24.304.55.402.926.271.376-.14.647-.393.631-.795a7.596 7.596 0 00-.2-1.532c-.091-.398-.203-.791-.315-1.184-.112-.394-.224-.787-.316-1.184-.255-1.123.072-2.05.967-2.746l.113-.088c.08-.062.157-.124.238-.174 1.35-.795 2.181-2.04 2.868-3.425.192-.394.44-.76.688-1.127.113-.167.227-.334.334-.504l.096.049.146.688c.147.689.294 1.377.413 2.066.536 2.99 2.26 5.244 4.258 7.342.197.21.456.364.7.51l.01.006c.336.205.68.205 1-.065.327-.279.446-.631.303-1.025a5.488 5.488 0 00-.552-1.081 22.011 22.011 0 00-.732-1.003c-.215-.283-.43-.566-.633-.858-.95-1.36-.99-2.319-.056-3.679.743-1.09 1.254-2.278 1.71-3.565.126.06.251.117.373.172.209.094.41.184.6.287 1.965 1.098 3.172 2.827 3.89 4.95.293.846.544 1.708.796 2.57l.195.667a5.915 5.915 0 001.118 2.106l.558.675.007.01.008.008.007.009.005.006c.914 1.107 1.826 2.213 2.754 3.307.264.312.583.607.927.828.623.401 1.23.278 1.805-.287.415-.41.487-.918.112-1.565-.216-.373-.493-.711-.767-1.043v-.001l-.001-.001-.15-.184a4.293 4.293 0 00-.536-.55c-1.622-1.417-2.02-3.294-1.949-5.35.012-.346.053-.691.093-1.027.015-.127.03-.252.043-.375l.737-.146h.003c.445-.088.872-.173 1.265-.247.149.336.288.68.427 1.025.303.746.606 1.495 1.01 2.179.595 1.008 1.3 1.946 2.004 2.884l.497.664c.28.377.655.68 1.166.557.271-.065.48-.819.343-1.352-.127-.5-.28-1.008-.527-1.45-1.102-1.992-1.526-4.18-1.821-6.4-.152-1.131-.807-1.64-1.91-1.418-2.06.418-4.129.623-6.23.434-.143-.016-.287-.049-.43-.081-1.487-.361-2.078-1.77-1.31-3.14a.508.508 0 01.087-.138c.714-.74 1.101-1.657 1.49-2.578.137-.326.275-.652.427-.97.304-.623.879-1.148 1.43-1.607.679-.557 1.51-.836 2.364-1.024.12-.025.296-.14.32-.238.024-.115-.072-.328-.168-.377l-.184-.09c-.366-.182-.744-.369-1.134-.418-.639-.082-1.302-.065-1.949 0-.719.074-1.358-.156-1.957-.45-.639-.312-1.246-.738-1.821-1.164-1.574-1.172-3.163-2.311-4.969-3.09-1.932-.844-3.937-1.122-6.014-.81a2.118 2.118 0 00-.503.015zm8.762-1.582c-.639.41-1.334.59-2.085.59-.718-.025-1.405-.172-1.989-.631-.646-.5-.894-1.238-.519-1.95.24-.45.574-.843.908-1.236.111-.131.223-.262.33-.395.056-.066.192-.09.288-.082 1.733.172 3.075 1.393 3.387 2.933.08.377-.024.582-.32.77zM8.236 3.293c.91.705 2.188 2.311 3.059 3.827l-.09.117c-.206.267-.4.52-.589.785-.168.237-.367.295-.655.205-1.478-.484-2.492-1.566-3.563-2.73.623-.744 1.23-1.473 1.836-2.202l.002-.002zm12.46 5.032c.658-.582 1.46-.683 2.266-.785.183-.024.365-.047.546-.075.415-.066.83-.189 1.23-.32.088-.033.215-.197.2-.279-.12-.81-.368-1.573-1.03-2.097a.635.635 0 00-.424-.131c-.975.155-1.877.5-2.684 1.081a3.825 3.825 0 00-.28.23c-.83.786-.774 1.68.176 2.376zm.312 13.447c-.807-1.475-4.322-2.885-5.232-2.09 0 .025 0 .066.016.074 1.086.967 1.869 2.188 2.628 3.425.184.303.367.32.655.222.67-.23 1.438-.87 1.933-1.631zm5.367 15.906c-.12.631-.367.82-1.006.836-.112-.021-.224-.038-.336-.055a4.187 4.187 0 01-.678-.142c-.72-.22-1.03-.737-.895-1.5.048-.278.152-.548.271-.802.432-.893 1.143-1.524 1.957-2.032.28-.173.616-.28.935-.337.148-.029.311.013.474.054.066.016.132.033.197.045a2.59 2.59 0 00-.034.187c-.027.162-.054.326-.134.444-.463.68-.599 1.442-.639 2.245a7.777 7.777 0 01-.112 1.057zm-1.697-1.154a.687.687 0 00-.435.638.7.7 0 01.435-.638zm-2.815-25.843c1.217.103 2.41.203 3.602.314.351.033.463-.106.495-.442.064-.721-.176-1.287-.767-1.68-.998-.655-2.78-.54-3.69.246-.463.393-.663.893-.567 1.483l.927.079zm-1.646-9.51c.958.533 1.869 1.074 2.508 2a784.37 784.37 0 00-4.313 2.614c-.264-.426-.296-.713-.104-1.311.364-1.152 1.054-2.113 1.753-3.086l.001-.002.155-.215zm-2.172 17.02c.996.348 1.796.976 2.612 1.616.493.387.991.777 1.541 1.114l.221-.357.003-.005h.001v-.001c.297-.478.587-.944.862-1.416.04-.065.015-.254-.049-.303-1.038-.836-2.156-1.508-3.522-1.573-.679-.017-1.286.163-1.67.926zm7.596-5.439c-.016.671-.033 1.359-.456 1.924-.166-.056-.33-.113-.493-.17a27.954 27.954 0 00-1.288-.42 54.69 54.69 0 00-2.284-.566c-.288-.065-.352-.213-.312-.491.104-.77.623-1.246 1.502-1.279 1.126-.049 2.165.336 3.179.795.072.033.152.14.152.205v.002zm-2.82 24.942c-.17.214-.323.402-.465.577-.158.194-.303.373-.446.554-.049.062-.1.123-.15.183a2.98 2.98 0 00-.337.456c-.295.524-.152 1.098.392 1.336.43.188.91.311 1.373.36a8.93 8.93 0 003.659-.352c-.08-.574-.336-.836-.895-.893a13.866 13.866 0 00-.843-.045c-.17-.006-.339-.012-.507-.021-1.086-.066-1.262-.238-1.477-1.32a3.117 3.117 0 00-.19-.547c-.038-.093-.077-.188-.114-.288zm1.007-20.036c-1.278-.68-2.58-1.27-4.026-1.565.207-1.049.886-1.516 1.957-1.377 1.078.131 2.037.59 2.915 1.221.088.066.2.213.176.279-.176.459-.36.926-.591 1.36-.048.082-.328.14-.431.082zm3.506 18.299c0 .852.136.991.775.868.263-.049.543-.164.758-.328.831-.63 1.063-2.155.488-2.999-.136-.197-.256-.278-.48-.114-.926.696-1.501 1.573-1.541 2.573z" fill="#20113D"/></svg>