<svg width="53" height="47" fill="none" xmlns="http://www.w3.org/2000/svg"><path d="M12.677 43.485c-.269-1.384-.356-2.76-.113-4.136.382-2.185 1.466-3.97 3.209-5.302.867-.662 1.864-1.15 2.8-1.724.617-.375 1.276-.705 1.805-1.176 1.396-1.262 2.731-2.585 4.093-3.883.806-.766 1.604-1.541 2.463-2.368-.581-.044-1.102-.052-1.613-.13-.512-.08-1.024-.21-1.396-.732.182-.009.312-.018.442-.018 1.37-.043 2.064-.74 2.09-2.072.017-.644-.139-1.297-.226-1.941-.39-2.726.286-5.181 1.882-7.393.104-.148.217-.304.347-.487-.442-.053-.841-.07-1.223-.157-.373-.087-.72-.244-1.084-.366l.026-.122c.287-.06.573-.113.85-.182 2.047-.54 3.547-1.733 4.458-3.684a19.89 19.89 0 011.3-2.35c.859-1.315 2.082-2.151 3.6-2.552.138-.034.268-.078.45-.13-.277-.166-.546-.279-.745-.47-.174-.166-.26-.418-.339-.706.72.244 1.232-.095 1.752-.4C38.39.48 39.31.09 40.367.134c1.3.06 2.29.713 3.113 1.68.113.13.217.27.33.418.702-.514 1.405-.375 2.055.06.364.244.65.61.997.897.555.47 1.093.984 1.709 1.376.303.192.745.157 1.196.244.295.844-.156 1.454-1.656 2.037l1.119 1.96c.277.478.494.948.33 1.558-.07.278.112.688.294.958.468.679.997 1.314 1.5 1.967.26.349.512.706.764 1.054.242.34.242.67-.01 1.001-.32.41-.597.871-.988 1.202-.58.487-1.058 1.045-1.543 1.628-.677.819-1.648.853-2.446.14-.2-.183-.416-.384-.538-.619-.277-.557-.754-.766-1.3-.914-.52-.14-1.041-.261-1.544-.435-.416-.148-.806-.349-1.205-.531-.07.27-.044.496.303.73.503.332 1.04.602 1.596.854.243.113.381.218.468.488.382 1.262.79 2.516 1.206 3.761.407 1.228.442 2.49.398 3.77a15.47 15.47 0 01-.72 4.18c-.312.966-.659 1.593-1.1 2.028-.296-.775-.582-1.54-.877-2.298l-.13.026c.07.766.113 1.532.217 2.299a68.33 68.33 0 002.177 9.934c.13.418.364.827.615 1.184.469.662 1.145.888 1.934.819.91-.079 1.388.2 1.596 1.088.156.68.165 1.393.243 2.125h-7.822c-.078-1.01-.13-2.02-.252-3.022-.06-.54-.139-1.105-.381-1.576-.538-1.027-1.171-1.994-1.787-2.977-.876-1.394-1.769-2.778-2.645-4.154-1.778.74-3.625 1.515-5.524 2.299-.06.496-.13 1.106-.2 1.707-.095.853-.511 1.514-1.196 1.985-.755.513-1.553.949-2.333 1.419-.208.13-.416.27-.624.4.017.053.026.105.043.157.26.035.529.105.78.087 1.006-.07 2.012-.165 3.027-.252.243-.018.486-.044.737-.044 2.28-.008 3.73 1.637 3.46 3.98a6.656 6.656 0 01-.416.017c-7.354 0-14.717.008-22.07 0-.746 0-1.518-.035-2.238-.218-.59-.148-1.24-.435-1.665-.862-1.69-1.69-2.575-3.71-1.804-6.121.477-1.48 1.136-2.908 1.77-4.336.416-.94.884-1.855 1.049-2.89.295-1.82-.495-3.466-2.038-4.232-.997-.497-2.654.27-2.88 1.34-.025.131.044.357.14.418.754.48 1.11 1.193 1.274 2.038.226 1.175 0 3.03-.477 3.953l-.728-1.123c.13 1.567-.494 2.786-1.448 3.874-.052-.017-.096-.017-.104-.026-.365-.984-1.041-1.715-1.822-2.386-.381-.33-.676-.757-1.014-1.149l-.4.775c-.44-.383-.718-1.184-.597-1.968.183-1.15.668-2.124 1.822-2.62.112-.053.2-.227.251-.366.555-1.463 1.388-2.717 2.758-3.527a5.34 5.34 0 013.625-.713c1.197.182 1.942.966 2.367 2.072.607 1.576.573 3.204.2 4.797-.27 1.167-.694 2.299-1.145 3.413-.39.984-.815 1.95-.937 3.022-.208 2.055 1.319 3.648 3.452 3.491z" fill="#20113D"/></svg>