<svg width="60" height="45" fill="none" xmlns="http://www.w3.org/2000/svg"><path fill-rule="evenodd" clip-rule="evenodd" d="M21.253 27.834c-2.419.722-4.856.61-7.312-1-.189.234-.382.47-.577.707v.001a46.2 46.2 0 00-1.448 1.828c-.347.49-.67 1-.994 1.508-.323.51-.647 1.018-.993 1.509-.77 1.092-1.05 2.276-.975 3.59.093 1.684-.582 2.536-2.25 2.832-3.431.61-6.506-1.906-6.525-5.33 0-.335-.006-.669-.012-1.002-.009-.497-.018-.991-.006-1.478.031-1.307.606-2.444 1.178-3.576.109-.215.217-.429.321-.644.27-.554.544-1.107.817-1.66 1.014-2.053 2.028-4.106 2.914-6.206 1.303-3.077 3.26-5.724 5.224-8.38.41-.555.82-1.11 1.226-1.67l.061-.072c.06-.07.122-.141.164-.224C14.259 4.625 18.159 3.7 22.17 2.923a63.26 63.26 0 002.952-.661c1.138-.274 2.275-.547 3.423-.746 2.1-.37 4.256-.666 6.393-.74 2.531-.093 4.669 1.073 6.562 2.683-2.868-1.443-5.943-1.943-9.13-1.869-.807.018-1.613.093-2.419.185-1.162.13-1.65.981-1.969 1.962-.824 2.498-.656 4.96.226 7.44.212.596.344 1.225.476 1.85.09.425.179.848.292 1.26.145.511.286 1.025.428 1.54.518 1.882 1.036 3.768 1.728 5.585.282.759 1.219 1.499 2.025 1.795 3.169 1.129 6.412 1.74 9.768.61 4.219-1.424 6.393-5.866 4.8-9.994-.51-1.307-1.117-2.574-1.725-3.847l-.319-.668c-.097-.206-.297-.37-.493-.532a5.394 5.394 0 01-.2-.172c-.243-.227-.496-.448-.75-.67-.51-.446-1.024-.895-1.463-1.402-.619-.722-.6-1.63-.056-2.406.525-.76 1.369-.944 2.25-.796 1.368.222 2.25 1.055 2.7 2.295.43 1.203.018 2.24-1.05 3.146 1.406 1.147 1.875 2.795 2.287 4.423.156.617.24 1.253.324 1.891.098.741.196 1.484.407 2.2.353 1.185.777 2.354 1.201 3.525.364 1.004.729 2.01 1.049 3.026.416 1.302.799 2.615 1.182 3.927.324 1.112.649 2.224.993 3.328.192.615.437 1.216.682 1.815.139.339.277.677.405 1.017.411 1.076 1.342 1.56 2.264 2.041.172.09.343.18.511.272.863.482 1.313 1.11 1.088 2.11-.207.944-.825 1.536-1.97 1.5-2.343-.093-4.667-.315-6.992-.556-.394-.037-.807-.444-1.088-.777a439.594 439.594 0 01-4.668-5.645c-1.069-1.314-1.856-2.758-2.269-4.405-.175-.678-.533-1.322-.886-1.958-.1-.18-.2-.36-.295-.54-.094-.186-.356-.352-.562-.39l-.148-.028c-1.188-.233-2.37-.465-3.396.566-.261.276-.69.424-1.063.553l-.006.002c-.656.222-.956.63-.712 1.258.865 2.29.8 4.628.734 6.972-.032 1.162-.065 2.326.016 3.485.033.444.096.889.16 1.333.078.555.157 1.11.177 1.665.02.426-.168 1.037-.468 1.259-2.494 1.85-5.287 2.165-8.156 1.147-1.425-.518-2.381-1.536-2.606-3.276a122.305 122.305 0 00-1.762-10.752c-.27-1.333-.92-2.606-1.554-3.846l-.209-.411c-1.8-3.535-2.306-7.2-1.668-11.123.525-3.258 1.237-6.367 3.43-8.94.453-.525.99-.976 1.526-1.425.219-.183.437-.367.65-.555.031-.027.066-.053.1-.079.108-.081.218-.165.274-.29-2.887.036-5.493.832-8.061 2.016-2.407 1.09-3.786 3.032-5.182 5-.312.439-.624.88-.95 1.312-.13.185-.13.5-.112.758.275 2.591 1.287 4.952 2.297 7.307l.066.152c.2.45.306.946.41 1.443.043.199.085.397.133.593.113.5.225 1.018.263 1.536l.024.318c.053.679.108 1.376-.005 2.032-.226 1.166-.132 1.518 1.087 1.703l1.187.117c1.501.147 3.027.296 4.494.457zm9.037-17.378c-1.088-.445-1.538-1.5-1.688-2.74-.169-1.35 1.069-3.035 2.513-3.535 1.143-.388 2.756.241 3.393 1.351.375.667.525 1.203-.3 1.777-.933.645-1.8 1.374-2.736 2.161-.38.32-.77.649-1.182.986zm3.562 5.68c-.338 1.463.619 2.629 1.781 2.536.105-.33.206-.655.305-.975.184-.592.363-1.169.557-1.745a3.73 3.73 0 01.194-.425c.084-.165.168-.33.219-.5.15-.537.319-1.24-.375-1.407-.506-.111-1.313.055-1.631.407-.506.555-.881 1.35-1.05 2.11zm6.693-2.072c.084-.11.16-.23.237-.348.179-.28.351-.548.588-.651.244-.112.769.11 1.031.333l.174.147c.622.526 1.255 1.062 1.701 1.722.244.389.15 1.11-.019 1.591-.131.352-.618.722-.993.796-.244.037-.638-.407-.882-.703-.412-.5-.768-1.018-1.124-1.573-.182-.243-.319-.522-.479-.848-.071-.146-.147-.3-.234-.466zm.982 6.651l.012-.007a2.66 2.66 0 00-.02-.099 1.35 1.35 0 01-.036-.271 4.12 4.12 0 01-.3-.09c-.2-.066-.4-.132-.6-.132-.77 0-1.538.018-2.288.111-.3.037-.656.24-.787.463-.075.13.168.536.375.721.11.109.27.147.433.186.116.028.234.057.335.11.207.112.582.334.563.426-.075.26-.263.518-.487.704-.11.095-.265.129-.458.17-.106.024-.222.05-.349.089.728-.047 1.402-.095 2.077-.142l1.167-.08c-.222-.098-.475-.127-.72-.155-.5-.058-.96-.112-1.024-.734l2.107-1.27z" fill="#20113D"/></svg>