<svg width="64" height="54" fill="none" xmlns="http://www.w3.org/2000/svg"><path d="M17.123 37.421c-.035.062-.064.132-.133.255-.775-1.302-1-2.742-1.273-4.162a1.154 1.154 0 00-.152-.039c-.168.43-.39.834-.492 1.27-.348 1.428-.243 2.859.098 4.284.418 1.693.835 3.386 1.192 5.082.265 1.273.42 2.569.14 3.874-.305 1.438-.942 2.6-2.39 3.148-.646.24-1.28.155-1.866-.18-.571-.33-.645-.917-.152-1.348.294-.26.628-.533.988-.672.713-.272 1.078-.783 1.134-1.495.054-.66.075-1.348-.04-1.996-.318-1.733-.7-3.45-1.107-5.163-.455-1.921-.722-3.842-.39-5.807.29-1.707 1.029-3.154 2.382-4.26l.288-.23c.06-.041.119-.068.23-.129.085.338.152.649.229.954.454-2.16.588-4.425 2.388-6.072 2.64 1.481 4.104 3.785 4.693 6.725.53-3.356-1.469-5.672-3.421-8.07.488-.288.95-.558 1.412-.828.392-.224.785-.448 1.18-.686.889-.517.915-.535 1.517.336.563.832 1.057 1.71 1.572 2.563.096.164.184.335.33.479-.097-1.55-.73-2.922-1.501-4.315.883-.488 1.744-.973 2.627-1.423.12-.067.361.052.51.143 1.681 1.04 2.666 2.621 3.348 4.43.206.537.384 1.091.621 1.62-.003-2.72-1.37-4.936-2.77-7.22l3.015-2.012c.983 1.048 1.566 2.401 2.204 3.744.061-1.046-.22-2.003-.726-2.9a9.833 9.833 0 00-.579-.948c-.26-.374-.255-.708.068-1.038.65-.65 1.288-1.318 1.939-1.968 2.585 1.683 4.133 3.982 4.714 6.965.141-1.57-.273-3.049-.84-4.476-.566-1.441-1.486-2.66-2.641-3.796a1239 1239 0 013.897-3.53c1.205 1.384 2.198 2.73 2.673 4.397-.127-1.823-.718-3.476-1.878-5.017.62-.299 1.163-.598 1.73-.824.122-.043.346.087.5.187.68.437 1.405.678 2.232.635-.953-.203-1.487-.877-1.908-1.665-.3-.549-.1-.873.493-.926.989-.1 1.97-.234 2.947-.39.671-.105 1.32-.322 1.992-.427 1.015-.156 1.947.074 2.888.527.705.343 1.532.453 2.32.6.481.1.924.503.943.986.01.337.028.669.07.997.121.924-.16 1.696-.79 2.396-.058-.088-.107-.144-.14-.211-.286-.7-.28-.69-1.002-.527-.683.164-1.34.386-1.81.967-.543.68-.602 1.483-.12 2.077.388.491 1.46.629 2.096.28l.357-.2c.32.728.21 1.284-.362 1.768-.453.378-.95.71-1.467 1.106-.595-.366-1.227-.77-1.877-1.126-.664-.357-1.355-.622-2.23-.368.338.169.592.305.941.491-1.442.594-2.411 1.521-2.949 2.948-.185-.525-.363-1.042-.583-1.658-.24 3.225 2.248 7.568 7.137 9.049-.227.075-.404.13-.584.199.006.047.003.1.009.147.206-.011.407.007.605-.036.68-.149 1.352-.33 2.039-.47.663-.138 1.263.047 1.887.495-.88.588-1.691 1.13-2.493 1.664-.686.445-1.365.9-2.063 1.327-.136.078-.369.106-.5.041-2.75-1.344-5.668-1.915-8.691-1.944-.984-.005-1.86-.246-2.662-.83a1.55 1.55 0 00-.758-.271c.33.365.651.736 1.042 1.174-3.662.525-6.988 1.766-10.044 3.793-.39-.682-.755-1.328-1.114-1.966-.032.009-.055.012-.087.02.052.194.088.4.164.59.375.984.299 1.95-.01 2.945-.707 2.253-2.184 3.951-3.766 5.605-.877.916-1.66 1.935-2.432 2.934a4.39 4.39 0 00-.913 2.644c0 .153-.046.31-.077.51-.157-.086-.288-.151-.452-.246.015.08.012.132.03.159.76 1.07 1.695 1.78 3.1 1.53.518-.091 1.01-.013 1.427.522l-.549.367c-1.351.902-2.708 1.795-4.038 2.709-.305.203-.489.173-.774-.03-1.01-.726-1.634-1.746-2.207-2.801-.21-.394-.267-.916-.26-1.379.008-1.506.1-3.017.102-4.532.008-.692-.137-1.384-.205-2.076-.059.026-.111.023-.172.025zm31.26-31.463c-.008.082-.008.158-.017.24.452.13.9.315 1.363.387.169.027.378-.226.57-.354-.17-.142-.336-.412-.502-.416-.474-.014-.948.086-1.414.142z" fill="#20113D"/><path d="M30.575 36.496c-.076 0-.248-.013-.513-.014.764.66 1.576.69 2.388.607.966-.098 1.926-.281 2.892-.38.57-.05 1.121.08 1.48.68-.124.095-.235.195-.357.276-1.447.967-2.888 1.942-4.356 2.897-.2.134-.517.167-.759.125-.725-.126-1.433-.303-2.15-.473-.838-.204-1.351-.675-1.42-1.596-.021-.317-.194-.635-.358-.92-.324-.547-.692-1.065-1.06-1.62 1.35-1.246 1.92-2.912 2.545-4.55.274-.706.716-1.18 1.42-1.484.574.66 1.053 1.345.843 2.3-.09.378-.185.747-.239 1.14-.123.973-.234 1.963-.356 3.012zm4.472-8.801c1.766-.353 3.389-.673 5.068-1.005.254 1.713-.23 3.45.536 5.063-.262.099-.498.18-.736.276.003.061.015.117.018.178.372-.007.76.028 1.123-.05.594-.129 1.155-.364 1.745-.516.67-.167 1.188.123 1.664.67l-1.656 1.107c-.985.658-1.959 1.333-2.962 1.965-.18.107-.494.126-.701.06-.83-.246-1.39-.865-1.704-1.623-.828-1.992-1.581-4.022-2.395-6.125z" fill="#20113D"/></svg>