<svg width="100" height="80" fill="none" xmlns="http://www.w3.org/2000/svg"><path fill-rule="evenodd" clip-rule="evenodd" d="M100 6.408v47.19l-.036.04c-.046.05-.094.103-.094.168-.653 2.651-2.532 4.488-5.611 5.594-.261.083-.47.46-.496.71-.04 1.58-.034 3.162-.03 4.743.002.527.004 1.054.004 1.58 0 1.879-.313 3.778-1.696 5.281-1.41 1.524-1.566 3.11-1.436 4.842.018.168.012.345.006.519-.003.086-.006.17-.006.254C90.58 79.038 89.431 80 87.291 80h-24.4c-2.087 0-3.262-.94-3.288-2.609-.017-.96-.011-1.91-.006-2.862v-.002c.003-.477.006-.955.006-1.435 0-2.067-1.07-2.985-3.653-3.131-4.306-.25-7.594-2.4-8.612-5.594-.47-1.482-.287-2.922.34-4.445H9.681C3.914 59.922 0 56.79 0 52.179V7.596C0 4.633 1.592 2.38 4.828.94 5.508.63 6.28.446 7.05.261c.322-.077.645-.154.96-.24C35.986 0 63.988 0 91.988 0c.092.02.183.047.275.073.09.026.182.052.273.073 3.523.605 5.846 2.296 7.02 5.01.166.36.29.755.409 1.137l.035.115zm-7.02 48.129c.966-.689 1.148-1.503 1.148-2.421V7.91c0-2.191-1.252-3.214-3.966-3.214H9.786c-2.688 0-3.94 1.002-3.94 3.152v44.205c0 2.15 1.252 3.173 3.914 3.173h48.72c.317 0 .633-.018.971-.038l.073-.004V44.853h-1.122c-.95 0-1.895.002-2.84.004h-.002c-1.887.005-3.77.01-5.665-.004-6.707-.042-12.161-4.342-12.266-9.622-.104-5.49 5.115-9.998 11.979-10.06a1076.36 1076.36 0 0125.965 0c7.96.104 13.622 6.428 11.352 12.544-1.227 3.339-3.993 5.53-8.064 6.678-.313.084-.783.334-.783.501-.039 1.295-.034 2.59-.03 3.928.003.452.004.91.004 1.374h6.237c3.053 0 5.585.918 7.464 2.838.323.32.59.672.883 1.057.11.144.222.293.343.446zm-8.246 20.725c0-.293.003-.574.006-.847a32.91 32.91 0 00-.006-1.511c-.026-.793.287-1.461.965-2.046 1.514-1.273 2.166-2.796 2.166-4.55V57.96c0-2.025-1.304-3.068-3.862-3.068h-8.585c-2.062 0-3.21-.898-3.236-2.547-.018-1.335-.012-2.67-.006-4.006.003-.669.006-1.337.006-2.005l.003-.939c.005-.939.01-1.878-.03-2.817-.052-1.503-1.304-2.588-3-2.714-2.088-.146-3.68 1.086-3.68 2.88-.017 3.215-.012 6.429-.006 9.637v.005c.003 1.602.006 3.203.006 4.802 0 1.857-1.096 2.713-3.419 2.734-.94.01-1.885.005-2.831 0s-1.892-.01-2.831 0c-2.01.042-3.42 1.127-3.445 2.588-.052 1.482 1.357 2.65 3.366 2.755l.313.01c.418.014.836.027 1.253.094 4.462.668 7.49 3.527 7.594 7.18.017.597.012 1.193.006 1.796-.003.304-.006.61-.006.917h19.259zM77.61 39.885c.254-.164.518-.317.781-.47.576-.334 1.146-.666 1.593-1.095 1.749-1.628 2.114-3.507.992-5.468-1.148-2.004-3.184-3.048-5.95-3.068-5.546-.014-11.093-.01-16.647-.005h-.007c-2.78.002-5.561.005-8.346.005-.496 0-.992.02-1.461.104-3.288.584-5.402 2.964-5.037 5.677.313 2.525 3.106 4.529 6.394 4.55 1.308.009 2.616.006 3.926.004 1.748-.004 3.5-.007 5.26.017.73 0 1.043-.188 1.357-.71 2.792-4.905 10.934-5.844 15.292-1.753.448.445.823.92 1.243 1.451.19.241.39.494.61.761zM18.737 47.42c-2.114-.355-3.236-1.315-3.053-2.609.182-1.398 1.487-2.15 3.653-2.15h2.349c1.93-.02 3.366-1.148 3.392-2.63.026-1.481-1.383-2.608-3.314-2.692-4.358-.188-7.776-2.233-8.873-5.343-1.252-3.61.783-7.138 5.115-8.724.522-.188.783-.397.835-.898.105-1.294 1.227-2.17 2.714-2.254 1.54-.083 2.688.689 3.106 2.004.052.209.365.459.626.5 1.696.335 2.662 1.295 2.505 2.568-.156 1.21-1.33 2.045-3 2.108-.61.014-1.219.01-1.828.005a92.455 92.455 0 00-.913-.005c-2.166.02-3.653 1.127-3.653 2.671.026 1.524 1.487 2.61 3.575 2.672 4.175.125 7.672 2.338 8.664 5.51 1.122 3.507-1.07 7.096-5.193 8.6-.34.124-.705.458-.757.73-.235 1.419-1.253 2.316-2.792 2.379-1.566.063-2.688-.71-3.08-2.129 0-.07-.023-.14-.046-.209a1.534 1.534 0 01-.032-.104zm19.155-35.022c0 1.294 1.304 2.316 2.922 2.316 1.592-.02 2.923-1.064 2.923-2.337 0-1.273-1.383-2.359-2.949-2.338-1.592 0-2.896 1.086-2.896 2.359zm-9.656 2.316c-1.592 0-2.896-1.022-2.922-2.316 0-1.294 1.278-2.338 2.87-2.359 1.592-.02 3.001 1.107 2.975 2.38 0 1.252-1.33 2.295-2.923 2.295zM12.735 12.44c.026 1.252 1.383 2.295 2.975 2.275 1.618-.021 2.87-1.044 2.87-2.338s-1.305-2.359-2.896-2.338c-1.592 0-2.975 1.127-2.95 2.4z" fill="#00A092"/></svg>