<svg width="106" height="80" fill="none" xmlns="http://www.w3.org/2000/svg"><path d="M97.363 5.66C90.963 1.104 82.348-.856 73.96.35c-8.7 1.257-16.32 5.461-20.94 11.56C48.402 5.81 40.781 1.607 32.082.35 23.694-.856 15.078 1.087 8.68 5.66.975 11.356-1.78 20.988 1.14 32.094c.021.034.042.067.063.118.083.184.186.352.331.502.042.034.042.067.083.1.042.034.104.051.145.085a.914.914 0 00.29.15c.207.084.414.134.642.151.062 0 .124.034.166.034a.726.726 0 00.186-.034h.187c.062-.017.082-.033.145-.05.103-.034.227-.067.33-.117.104-.05.208-.1.29-.168.042-.033.084-.033.125-.067l6.213-5.025.021-.017c1.367-1.106 3.563-1.122 4.95-.034 1.388 1.09 1.43 2.865.104 4.004L5.22 39.968c-.456.368-.622.888-.456 1.373.166.486.642.888 1.243 1.005.6.118 1.263 0 1.719-.368l10.086-8.158c.02-.017.042-.017.042-.017.02-.017.041-.05.062-.067l6.13-4.958c.02-.017.042-.017.042-.034 1.387-1.089 3.603-1.089 4.991 0 1.367 1.106 1.367 2.915.02 4.02l-.02.017L10.253 48.01c-.456.368-.622.887-.456 1.373.166.486.642.871 1.243 1.005.6.134 1.263-.016 1.698-.368l16.341-13.2.041-.034c1.388-1.089 3.625-1.055 4.971.067 1.346 1.122 1.346 2.915-.02 4.02l-3.75 3.032-13.648 11.04c-.456.368-.621.888-.456 1.373.166.486.642.871 1.243 1.005.6.134 1.263-.016 1.698-.368l13.649-11.04c1.388-1.122 3.624-1.122 4.991 0 1.388 1.123 1.388 2.932 0 4.038 0 0 0 .017-.02.017l-13.69 11.07-.021.017-.02.017c-.063.067-.125.15-.166.218-.063.067-.125.15-.187.234a.633.633 0 00-.062.268.689.689 0 00.02.536c.021.084.042.184.083.268.063.084.125.168.187.235.041.067.104.15.166.217l.02.017.021.017c8.637 6.265 17.977 11.86 27.919 16.701a2.093 2.093 0 001.843 0c9.941-4.84 19.282-10.436 27.918-16.701l.021-.017.02-.017a.92.92 0 00.166-.217.706.706 0 00.187-.235c.062-.184.103-.351.145-.536 0-.084-.02-.184-.042-.268-.02-.084-.041-.184-.062-.268a.705.705 0 00-.186-.234.943.943 0 00-.166-.218l-.02-.017-.021-.017L68.16 49.97s0-.017-.02-.017c-1.389-1.123-1.389-2.932 0-4.037 1.387-1.123 3.623-1.123 4.99 0l13.65 11.038c.683.553 1.802.553 2.506 0 .683-.553.683-1.457 0-2.027l-13.648-11.04-3.75-3.031c-.89-.72-1.242-1.776-.91-2.764.33-.989 1.284-1.76 2.506-2.027 1.222-.268 2.526.016 3.417.737l.02.017 16.3 13.183c.684.553 1.802.553 2.486 0 .683-.553.683-1.457 0-2.01l-16.32-13.184-.022-.017c-.02-.016-.02-.016-.04-.016l-2.466-1.994c-1.387-1.122-1.387-2.931 0-4.037 1.388-1.105 3.625-1.122 4.992 0 .02.017.041.017.041.034l5.965 4.824c.062.067.145.134.249.201l10.127 8.175c.456.368 1.098.502 1.72.368.6-.133 1.076-.519 1.242-1.005.166-.485-.021-1.021-.456-1.373l-10.148-8.192a.231.231 0 00-.104-.084v-.016c-1.263-1.123-1.222-2.865.125-3.937 1.387-1.072 3.603-1.072 4.991 0l6.234 5.042c.041.034.083.034.124.067.187.118.394.218.622.268a.958.958 0 00.145.05c.124.017.248.034.372.034.207 0 .435-.033.622-.1.062-.017.103-.05.165-.067a1.7 1.7 0 00.394-.218c.021-.017.041-.017.062-.034.041-.033.041-.067.083-.1a1.65 1.65 0 00.228-.285c.041-.067.083-.134.103-.201.021-.05.042-.084.062-.134 2.983-11.073.249-20.705-7.456-26.4zm4.66 23.185l-3.831-3.1c-2.796-2.16-7.187-2.16-9.983 0-.87.721-1.491 1.592-1.823 2.564L84.46 26.75c-.02-.017-.062-.034-.082-.05-2.444-1.944-6.276-2.178-9.051-.553-2.775 1.625-3.707 4.623-2.196 7.12-2.444.368-4.452 1.758-5.302 3.634-.849 1.876-.414 3.987 1.16 5.545-1.242.235-2.382.754-3.272 1.474-2.734 2.228-2.755 5.813-.02 8.058.02.017.02.033.02.033L78.102 62.03c-7.808 5.544-16.196 10.537-25.06 14.925-8.865-4.388-17.253-9.38-25.06-14.925l12.385-10.018c.02-.017.02-.033.02-.033 2.713-2.245 2.713-5.83-.02-8.058a7.522 7.522 0 00-3.273-1.474c1.574-1.558 2.01-3.652 1.16-5.545-.85-1.893-2.858-3.266-5.281-3.652 1.305-2.177.766-4.79-1.347-6.516-2.754-2.144-7.104-2.161-9.92-.05-.042.017-.062.033-.104.05l-1.926 1.558c-.31-.972-.932-1.86-1.802-2.58-2.734-2.211-7.186-2.228-9.941-.033-.02.016-.041.016-.041.033l-3.832 3.1c-1.595-8.93.89-16.518 7.042-21.074 5.613-3.937 13.11-5.612 20.442-4.59 8.305 1.122 15.409 5.46 19.965 12.212.331.435.932.687 1.553.687.622 0 1.222-.269 1.554-.687C59.193 8.592 66.276 4.253 74.58 3.148c7.311-1.022 14.83.67 20.442 4.59 6.11 4.573 8.595 12.161 7 21.107z" fill="#00A092"/></svg>