<svg width="80" height="80" fill="none" xmlns="http://www.w3.org/2000/svg"><path d="M6.667 68h2.667c.733 0 1.333-.6 1.333-1.333 0-.734-.6-1.334-1.333-1.334H6.667c-.733 0-1.333.6-1.333 1.334 0 .733.6 1.333 1.333 1.333zm64 0h2.667c.733 0 1.333-.6 1.333-1.333 0-.734-.6-1.334-1.333-1.334h-2.667c-.733 0-1.333.6-1.333 1.334 0 .733.6 1.333 1.333 1.333zm-64 8h2.667c.733 0 1.333-.6 1.333-1.333 0-.734-.6-1.334-1.333-1.334H6.667c-.733 0-1.333.6-1.333 1.334 0 .733.6 1.333 1.333 1.333zm32-8h2.667c.733 0 1.333-.6 1.333-1.333 0-.734-.6-1.334-1.333-1.334h-2.667c-.733 0-1.333.6-1.333 1.334 0 .733.6 1.333 1.333 1.333zm0 8h2.667c.733 0 1.333-.6 1.333-1.333 0-.734-.6-1.334-1.333-1.334h-2.667c-.733 0-1.333.6-1.333 1.334 0 .733.6 1.333 1.333 1.333zm32 0h2.667c.733 0 1.333-.6 1.333-1.333 0-.734-.6-1.334-1.333-1.334h-2.667c-.733 0-1.333.6-1.333 1.334 0 .733.6 1.333 1.333 1.333zM21.934 41.417a1.321 1.321 0 00-1.734-.75l-2.483.966a1.321 1.321 0 00-.75 1.734 1.321 1.321 0 001.733.75l2.484-.967a1.347 1.347 0 00.75-1.733z" fill="#00A092"/><path d="M78.3 32.017c.35-3.3-1.9-6.317-5.167-6.917-3.433-5.233-10.466-6.683-15.683-3.233a11.488 11.488 0 00-3.233 3.233c-.75.133-1.467.4-2.117.8l5.167-13.417a1.324 1.324 0 00-.767-1.716c-.017 0-.033-.017-.05-.017l-4-1.333a1.32 1.32 0 00-1.667.783l-1.45 3.683V1.333C49.333.6 48.733 0 48 0h-5.333c-.734 0-1.334.6-1.334 1.333v12.55l-1.416-3.7A1.32 1.32 0 0038.25 9.4l-4 1.333c-.7.234-1.083.984-.85 1.684 0 .016.017.033.017.05l5.716 14.85A13.09 13.09 0 0140 31.983v1.5c-.45.167-.867.367-1.283.617l-.45-.9A6.935 6.935 0 0032 29.333h-3.167c-.733 0-1.333.6-1.333 1.334 0 .2.05.416.133.6l1.1 2.2A6.935 6.935 0 0035 37.333h.367c-.5.8-.867 1.667-1.1 2.567-2.05-2.067-5.384-2.1-7.45-.067-.15.15-.284.3-.417.467l-.317.383a9.93 9.93 0 00-.833 1.217l-1.183-4.1a8.716 8.716 0 00-3.434-4.733c2.4-1.8 3.3-4.967 2.2-7.75a6.719 6.719 0 00-6.95-4.2C12.5 18.25 7.45 18.65 4.583 22a8.06 8.06 0 00-1.866 4.25 6.741 6.741 0 00-2.267 7.8 6.656 6.656 0 006.883 4.217 8.66 8.66 0 00.684 5.816l4.616 9.25h-11.3c-.733 0-1.333.6-1.333 1.334v24C0 79.4.6 80 1.333 80h77.334C79.4 80 80 79.4 80 78.667v-24c0-.734-.6-1.334-1.333-1.334h-8.35c.15-.933.466-1.85.916-2.683.134 0 .284.017.434.017 4.416 0 8-3.584 8-8a7.94 7.94 0 00-.6-3.034 6.329 6.329 0 00-.767-7.616zM63.767 51.1a11.47 11.47 0 00-.95-2.717 7.97 7.97 0 00.833-.45c.333.2.667.367 1.017.534-.4.833-.7 1.716-.9 2.633zm-3.517-1.883a8.258 8.258 0 011.083 4.116h-1.416a10.86 10.86 0 00-.984-3.366c.467-.2.9-.45 1.317-.75zM56.3 50.65c.467.833.783 1.75.933 2.683h-3.966a6.441 6.441 0 00-1.134-2.5l-1.416-1.9a7.934 7.934 0 004.966 1.734c.2 0 .4 0 .617-.017zm-11.15 1.6a9.997 9.997 0 00.8-9l1.85-4.55c.133.317.283.633.467.933A7.98 7.98 0 0048 44.95v4.383c0 .284.1.567.267.8l1.716 2.3c.2.284.384.584.5.9h-6.016l.683-1.083zm7.633-39.917l1.467.484-5.217 13.55a15.915 15.915 0 00-1.016 4.65l-3.8 9.366-.067-.083a5.291 5.291 0 00-1.5-1.283V37l10.133-24.667zM44 20.667v-18h2.667V20.3c0 .133.016.25.05.367l-1.384 3.616L44 20.8v-.133zm-7.583-7.85l1.466-.484 5.434 14.117c.216.55.366 1.117.483 1.7l-1.183 2.583c-.117-1.5-.45-2.966-.984-4.366l-5.216-13.55zM40 36.733v1.6a5.23 5.23 0 00-2.533.667A6.649 6.649 0 0140 36.45v.283zm-8.867-4.466L31 32h1c1.65 0 3.15.917 3.883 2.4l.134.267h-1c-1.65 0-3.167-.917-3.884-2.4zm-2.983 10.1l.317-.384a2.614 2.614 0 013.666-.4c.217.167.384.367.534.584a3.138 3.138 0 005.216 0A2.61 2.61 0 0140.9 41.15s.017 0 .017.017c.45.166.85.45 1.15.833l.316.383a7.354 7.354 0 01.5 8.467l-1.566 2.5h-12.1l-1.567-2.5a7.407 7.407 0 01.5-8.483zm-4.25 4.066c0-.016 0-.016-.017-.033l.017.033zM2.95 33.083a4.016 4.016 0 011.717-4.916c.4-.234.65-.65.666-1.117a5.34 5.34 0 019.15-3.583c.317.333.8.466 1.25.366a4.029 4.029 0 014.6 2.45c.8 2.05-.2 4.367-2.25 5.167-.283.117-.6.2-.9.233-.05 0-.1-.016-.133-.016a7.554 7.554 0 011.8-3.517c.5-.55.467-1.383-.083-1.883a1.324 1.324 0 00-1.884.083l-.016.017a10.395 10.395 0 00-2.467 4.95 1.143 1.143 0 00-.6.216l-1.883-4.816a1.321 1.321 0 00-1.734-.75 1.321 1.321 0 00-.75 1.733l1.867 4.8a1.223 1.223 0 00-.583.25 10.253 10.253 0 00-5.167-1.967 1.33 1.33 0 00-1.45 1.2 1.33 1.33 0 001.2 1.45A7.75 7.75 0 019 34.8c-.033.033-.05.083-.083.117-1.817 1.25-4.3.8-5.55-1.017a3.772 3.772 0 01-.417-.817zm11.7 18.334l2.25-.884a1.33 1.33 0 00-.95-2.483h-.017l-2.483.967-1.2-2.4 1.467-.567a1.321 1.321 0 00.75-1.733c-.284-.7-1.034-1.034-1.734-.75l-1.683.666-.667-1.333a5.989 5.989 0 01.4-6.033c.5-.4.934-.85 1.3-1.367.45-.333.934-.617 1.467-.817a5.989 5.989 0 011.633-.383c.617.133 1.25.183 1.884.133.45.1.883.267 1.3.467a5.918 5.918 0 013.1 3.7l2.116 7.333c.017.034.017.05.034.084a1.345 1.345 0 00-1.484-.367l-1.25.483a1.321 1.321 0 00-.75 1.734 1.321 1.321 0 001.734.75l1.25-.484c.366-.133.633-.433.766-.8a9.964 9.964 0 001.517 4.934l.683 1.083H15.617l-.967-1.933zm62.683 17.916H2.667V64h74.666v5.333zm0 8H2.667V72h74.666v5.333zm0-16H2.667V56h74.666v5.333zm-9.716-8H66.2c0-1.4.35-2.783 1.033-4 .417.284.867.517 1.334.717-.484 1.033-.8 2.15-.95 3.283zM76.5 38.65c-.35.417-.4 1-.15 1.483 1.4 2.6.433 5.834-2.167 7.234A5.386 5.386 0 0171.65 48c-1.183 0-2.333-.4-3.267-1.117a1.32 1.32 0 00-.65-.266 7.015 7.015 0 01-3.283-1.334 1.35 1.35 0 00-1.6 0 6.945 6.945 0 01-3.283 1.334 1.32 1.32 0 00-.65.266A5.173 5.173 0 0155.65 48a5.328 5.328 0 01-5.333-5.333c0-.884.216-1.75.633-2.534a1.34 1.34 0 00-.15-1.483 3.676 3.676 0 01-.333-4.167c.216-.366.483-.683.816-.966a1.34 1.34 0 00.45-1.334 3.671 3.671 0 012.717-4.416c.2-.05.4-.084.6-.1.45-.034.85-.284 1.067-.667a8.67 8.67 0 0115.033 0c.217.383.617.633 1.067.667a3.671 3.671 0 013.416 3.9c-.016.2-.05.4-.1.6-.116.5.05 1 .45 1.333a3.685 3.685 0 011.317 2.817 3.377 3.377 0 01-.8 2.333z" fill="#00A092"/><path d="M63.667 25.333a5.361 5.361 0 00-5.034 3.55c-.25.7.117 1.45.817 1.7s1.45-.116 1.7-.816c.5-1.384 2.017-2.117 3.4-1.617.767.267 1.35.867 1.617 1.617.25.7 1 1.05 1.7.816.7-.25 1.05-1 .816-1.7a5.323 5.323 0 00-5.016-3.55zM57 34.667c.733 0 1.333-.6 1.333-1.334 0-.733-.6-1.333-1.333-1.333a3.99 3.99 0 00-4 4c0 2.217 1.783 4 4 4 .733 0 1.333-.6 1.333-1.333 0-.734-.6-1.334-1.333-1.334s-1.333-.6-1.333-1.333.6-1.333 1.333-1.333zM9.334 57.333H6.667c-.733 0-1.333.6-1.333 1.334 0 .733.6 1.333 1.333 1.333h2.667c.733 0 1.333-.6 1.333-1.333 0-.734-.6-1.334-1.333-1.334zM70.667 60h2.667c.733 0 1.333-.6 1.333-1.333 0-.734-.6-1.334-1.333-1.334h-2.667c-.733 0-1.333.6-1.333 1.334 0 .733.6 1.333 1.333 1.333zm-29.333-2.667h-2.667c-.733 0-1.333.6-1.333 1.334 0 .733.6 1.333 1.333 1.333h2.667c.733 0 1.333-.6 1.333-1.333 0-.734-.6-1.334-1.333-1.334zm-9.9-6.666c.733 0 1.333-.6 1.333-1.334 0-.35-.133-.7-.383-.95a1.288 1.288 0 01-.234-1.483l.484-.983a1.333 1.333 0 00-.617-1.784c-.65-.316-1.45-.05-1.767.584l-.483.983a3.957 3.957 0 00.733 4.567c.234.266.584.4.934.4z" fill="#00A092"/></svg>