<svg width="28" height="25" fill="none" xmlns="http://www.w3.org/2000/svg"><path fill-rule="evenodd" clip-rule="evenodd" d="M15.204.246c-.205.09-.392.22-.549.385a1.8 1.8 0 00-.367.574 1.844 1.844 0 000 1.357c.085.215.21.41.367.574l6.79 7.111H2.127c-.478 0-.936.238-1.274.66-.338.423-.528.995-.528 1.593 0 .597.19 1.17.528 1.593.338.422.796.66 1.274.66h19.317l-6.79 7.111a1.815 1.815 0 00-.495 1.253c0 .47.178.92.495 1.253.318.332.748.519 1.196.519.448 0 .879-.187 1.196-.519l10.132-10.617c.157-.164.282-.36.367-.574a1.844 1.844 0 000-1.357 1.776 1.776 0 00-.367-.574L17.047.63a1.687 1.687 0 00-.549-.385 1.622 1.622 0 00-1.294 0z" fill="#F58021"/></svg>