<svg width="26" height="22" fill="none" xmlns="http://www.w3.org/2000/svg"><path fill-rule="evenodd" clip-rule="evenodd" d="M14.068.12a1.51 1.51 0 00-.487.342c-.14.146-.25.319-.326.51a1.636 1.636 0 00.326 1.714L19.61 9H2.459c-.425 0-.832.21-1.132.586-.3.375-.469.884-.469 1.414 0 .53.169 1.04.469 1.414.3.375.707.586 1.131.586H19.61l-6.029 6.315c-.281.295-.44.695-.44 1.112 0 .417.159.817.44 1.112.282.295.664.461 1.062.461s.78-.166 1.061-.46l8.996-9.427c.14-.146.25-.32.326-.51a1.636 1.636 0 000-1.205 1.578 1.578 0 00-.326-.51L15.704.462a1.497 1.497 0 00-.487-.342 1.44 1.44 0 00-1.149 0z" fill="#20113D"/></svg>