<svg width="26" height="22" fill="none" xmlns="http://www.w3.org/2000/svg"><path fill-rule="evenodd" clip-rule="evenodd" d="M11.932.12c.182.08.347.195.487.342.14.146.25.319.326.51a1.636 1.636 0 01-.326 1.714L6.39 9h17.15c.425 0 .832.21 1.132.586.3.375.469.884.469 1.414 0 .53-.169 1.04-.469 1.414-.3.375-.707.586-1.131.586H6.39l6.029 6.315c.281.295.44.695.44 1.112 0 .417-.159.817-.44 1.112-.282.295-.664.461-1.062.461s-.78-.166-1.061-.46L1.3 12.112c-.14-.146-.25-.32-.326-.51a1.637 1.637 0 010-1.205c.075-.19.186-.364.326-.51L10.296.462c.139-.147.304-.263.487-.342a1.44 1.44 0 011.149 0z" fill="#20113D"/></svg>