<svg width="96" height="50" fill="none" xmlns="http://www.w3.org/2000/svg"><g clip-path="url(#clip0_3201_2064)" fill-rule="evenodd" clip-rule="evenodd" fill="#000"><path d="M75.308 31.676c1.48 0 2.47 1.44 1.966 2.87-.248.715-.734 1.26-1.221 1.805l-.125.14c-.345.385-.679.782-.965 1.209-.41.61-.615 1.316-.75 2.04a4.92 4.92 0 01-.163.657c-.363 1.174-1.323 1.725-2.488 1.364-1.434-.445-2.236-1.512-2.622-2.929-.275-1.02-.117-1.986.497-2.84.188-.267.504-.462.796-.616.23-.122.493-.184.75-.244l.17-.04c.678-.167 1.146-.576 1.492-1.18.28-.493.58-.985.942-1.418.44-.521 1.024-.818 1.72-.818zm15.059 6.207c-.076 1.542-.708 2.77-2.031 3.587-.52.32-1.089.475-1.71.362-.643-.119-1.117-.468-1.357-1.085a7.652 7.652 0 01-.334-1.192 5.877 5.877 0 00-1.597-3 10.507 10.507 0 01-1.142-1.41c-.31-.451-.474-.979-.41-1.542.194-1.666 1.979-2.466 3.354-1.506.62.433 1.042 1.038 1.352 1.72.34.729.896 1.132 1.65 1.316.334.083.668.207.978.361.896.445 1.16 1.269 1.241 2.2.009.04.008.09.007.14l-.001.035v.014zm-10.223 4.095l-.528-.087-.001.019a.107.107 0 000 .04c-.116.01-.233.015-.35.021-.118.006-.234.012-.352.021-.667.053-1.322.166-1.908.51-1.106.652-1.182 2.004-.146 2.763.19.139.4.25.611.36.076.04.151.079.226.12.112.062.226.122.34.182.191.1.382.199.561.31.293.184.504.45.521.812.041.842-.357 1.541-1.322 1.547-.194 0-.404 0-.58-.065-.249-.09-.49-.195-.733-.3-.22-.095-.44-.19-.666-.275-.134-.053-.34-.053-.45.024-.094.065-.147.279-.13.409.018.107.153.22.258.296 1.557 1.085 3.272 1.5 5.14 1.24a6.973 6.973 0 003.142-1.275c.234-.166.293-.386.17-.581-.129-.202-.34-.237-.591-.095l-.129.071-.129.071c-.585.32-1.194.54-1.873.474-.556-.059-.942-.397-1.082-.936-.164-.635-.036-1.073.456-1.405.173-.117.36-.212.547-.307a7.72 7.72 0 00.401-.215l.23-.13c.273-.154.548-.308.777-.516a1.55 1.55 0 00-.129-2.419 2.386 2.386 0 00-.83-.415 19.93 19.93 0 00-1.45-.27zM26.148 50v-4.81H7.534l18.045-21.998v-3.804H.307v4.81h17.739L0 46.195V50h26.148zm28.63-15.306c0 5.44-4.419 9.865-9.888 9.865-5.47 0-9.89-4.425-9.89-9.865s4.42-9.866 9.89-9.866c5.47 0 9.889 4.425 9.889 9.866zm5.441 0C60.22 43.147 53.356 50 44.89 50c-8.466 0-15.33-6.853-15.33-15.306 0-8.454 6.864-15.306 15.33-15.306 8.467 0 15.33 6.852 15.33 15.306zM52.348 4.988h-2.519V16.18h2.519V4.988zM49.95 2.704c.309.293.692.44 1.148.44.47 0 .853-.154 1.149-.461a1.63 1.63 0 00.463-1.174c0-.433-.154-.79-.463-1.069-.31-.293-.692-.44-1.149-.44-.456 0-.84.154-1.148.461a1.467 1.467 0 00-.463 1.11c0 .448.154.825.463 1.133zM44.005.629h2.519v15.55h-2.519V.63zM19.12 15.593c.873.489 1.854.733 2.942.733 1.101 0 2.088-.244 2.962-.733a5.19 5.19 0 002.035-2.033c.497-.88.745-1.872.745-2.976 0-1.104-.248-2.089-.745-2.955a5.189 5.189 0 00-2.035-2.033c-.873-.49-1.86-.734-2.962-.734-1.088 0-2.069.245-2.942.734a5.329 5.329 0 00-2.055 2.033c-.483.866-.725 1.851-.725 2.955s.242 2.096.725 2.976a5.33 5.33 0 002.055 2.033zm5.239-2.473c-.605.643-1.37.964-2.297.964s-1.693-.321-2.297-.964c-.591-.643-.887-1.488-.887-2.536s.296-1.893.887-2.536c.604-.643 1.37-.964 2.297-.964s1.692.321 2.297.964c.604.643.906 1.488.906 2.536s-.302 1.893-.906 2.536zM39.58 6.099c-.82-.825-1.907-1.237-3.264-1.237-.792 0-1.504.133-2.136.399a3.946 3.946 0 00-1.571 1.173V4.988h-2.398V16.18h2.519v-5.66c0-1.09.268-1.921.806-2.494.537-.587 1.27-.88 2.196-.88.82 0 1.45.251 1.894.754.443.49.665 1.223.665 2.2v6.079h2.518V9.767c0-1.621-.41-2.844-1.229-3.668zm22.177-1.237c1.357 0 2.445.412 3.264 1.237.82.824 1.229 2.047 1.229 3.668v6.413h-2.519v-6.078c0-.978-.221-1.712-.664-2.2-.444-.504-1.075-.755-1.894-.755-.927 0-1.66.293-2.197.88-.537.573-.805 1.404-.805 2.494v5.659h-2.519V4.988h2.398v1.446c.416-.517.94-.908 1.571-1.173.632-.266 1.343-.399 2.136-.399zm17.86 6.56c.027-.335.04-.594.04-.775 0-1.146-.235-2.152-.705-3.018a4.86 4.86 0 00-1.934-2.033c-.82-.49-1.753-.734-2.8-.734-1.062 0-2.015.245-2.861.734a5.228 5.228 0 00-1.995 2.054c-.47.866-.705 1.844-.705 2.934 0 1.104.242 2.096.725 2.976a5.257 5.257 0 002.095 2.033c.9.489 1.941.733 3.123.733.927 0 1.76-.153 2.499-.46a4.558 4.558 0 001.833-1.363l-1.35-1.614c-.765.81-1.74 1.216-2.921 1.216-.927 0-1.706-.238-2.337-.713-.618-.489-1.001-1.145-1.149-1.97h8.442zm-7.454-3.71c.564-.502 1.249-.754 2.055-.754.819 0 1.504.252 2.055.755.55.503.88 1.16.987 1.97h-6.105c.12-.825.457-1.481 1.007-1.97zm20.86 23.938A6.687 6.687 0 0096 26.084c0-3.698-3.003-6.696-6.707-6.696a6.704 6.704 0 00-5.645 3.078 15.294 15.294 0 019.376 9.184zm-26.764 0a6.687 6.687 0 01-2.976-5.566c0-3.698 3.003-6.696 6.707-6.696a6.704 6.704 0 015.645 3.079 15.293 15.293 0 00-9.376 9.183z"/></g><defs><clipPath id="clip0_3201_2064"><path fill="#fff" d="M0 0h96.001v50H0z"/></clipPath></defs></svg>