<svg width="48" height="48" fill="none" xmlns="http://www.w3.org/2000/svg"><g clip-path="url(#clip0_2_3931)"><rect width="48" height="48" rx="5" fill="#F58021"/><path fill-rule="evenodd" clip-rule="evenodd" d="M37.74 21.262a6.687 6.687 0 002.976-5.565c0-3.699-3.003-6.697-6.707-6.697a6.704 6.704 0 00-5.645 3.079 15.294 15.294 0 019.376 9.183zm-26.764 0A6.687 6.687 0 018 15.698C8 11.998 11.003 9 14.707 9a6.704 6.704 0 015.645 3.08 15.294 15.294 0 00-9.376 9.183zm11.014 2.896c.504-1.429-.485-2.87-1.966-2.87-.697 0-1.282.297-1.721.819-.363.433-.661.925-.942 1.417-.346.604-.814 1.013-1.493 1.18l-.169.04c-.258.06-.52.122-.75.244-.293.154-.608.35-.796.617-.614.853-.772 1.82-.497 2.84.386 1.416 1.188 2.483 2.622 2.928 1.165.362 2.124-.19 2.487-1.364a4.93 4.93 0 00.164-.657c.135-.724.34-1.43.75-2.04.286-.427.62-.824.965-1.21l.125-.139c.487-.545.973-1.09 1.221-1.805zm11.062 6.925c1.323-.818 1.955-2.046 2.03-3.587v-.015l.002-.035c0-.05.002-.1-.007-.14-.082-.93-.345-1.755-1.24-2.2a4.852 4.852 0 00-.978-.361c-.755-.184-1.311-.587-1.65-1.316-.311-.682-.732-1.287-1.353-1.72-1.375-.96-3.16-.16-3.354 1.506-.064.564.1 1.091.41 1.542.34.498.72.978 1.141 1.41a5.878 5.878 0 011.598 3c.082.404.188.807.334 1.192.24.617.714.967 1.358 1.085.62.113 1.188-.041 1.709-.361zm-8.72.42c.175.03.352.059.528.087.487.078.973.156 1.45.27.293.07.585.23.831.414a1.55 1.55 0 01.129 2.42c-.229.207-.504.362-.778.515l-.229.13c-.13.078-.266.146-.401.215-.187.095-.374.19-.547.307-.492.332-.62.77-.457 1.405.14.54.527.878 1.083.937.68.065 1.288-.154 1.873-.474l.129-.072.129-.07c.251-.143.462-.107.59.094.124.196.065.415-.169.581a6.973 6.973 0 01-3.143 1.275c-1.867.26-3.582-.154-5.139-1.24-.105-.076-.24-.189-.257-.296-.018-.13.035-.344.128-.409.112-.077.316-.077.451-.023.225.084.446.18.665.274.243.106.485.21.734.3.176.066.386.066.58.066.965-.006 1.363-.706 1.322-1.548-.017-.361-.228-.628-.52-.812-.18-.11-.37-.21-.561-.31-.115-.06-.23-.12-.341-.182l-.226-.12c-.21-.11-.422-.22-.611-.36-1.036-.759-.96-2.11.146-2.763.585-.344 1.241-.456 1.908-.51.117-.009.234-.014.351-.02.117-.006.235-.012.352-.021a.102.102 0 01-.002-.04l.001-.012v-.008z" fill="#000"/></g><defs><clipPath id="clip0_2_3931"><path fill="#fff" d="M0 0h48v48H0z"/></clipPath></defs></svg>