<svg width="138" height="52" fill="none" xmlns="http://www.w3.org/2000/svg"><g clip-path="url(#clip0_3201_4748)"><path d="M71.247 16.93l6.565-.424c.15 1.07.425 1.867.874 2.44.724.896 1.722 1.344 3.045 1.344.974 0 1.748-.224 2.272-.697.5-.373.8-.971.8-1.593 0-.598-.275-1.17-.75-1.544-.5-.448-1.672-.896-3.52-1.294-3.02-.673-5.192-1.569-6.465-2.714A5.402 5.402 0 0172.12 8.14c0-1.145.349-2.29.998-3.237.749-1.07 1.772-1.917 2.996-2.39 1.323-.572 3.17-.87 5.492-.87 2.846 0 5.017.522 6.515 1.592 1.498 1.046 2.397 2.739 2.671 5.054l-6.49.374c-.175-.996-.524-1.718-1.099-2.191-.574-.473-1.323-.697-2.296-.697-.8 0-1.398.174-1.798.498-.374.298-.624.747-.599 1.244 0 .374.2.722.5.947.324.298 1.098.572 2.321.821 3.02.647 5.168 1.295 6.49 1.967 1.324.672 2.272 1.494 2.847 2.464.599.996.898 2.142.873 3.312a7.03 7.03 0 01-1.198 3.958 7.57 7.57 0 01-3.32 2.739c-1.423.622-3.22.946-5.367.946-3.795 0-6.416-.722-7.889-2.191-1.473-1.469-2.347-3.311-2.521-5.552zM1.573 24.297V2.041H13.08c2.122 0 3.77.175 4.893.548a5.17 5.17 0 012.721 2.042 6.172 6.172 0 011.049 3.61c.074 2.19-1.049 4.282-2.971 5.377a7.63 7.63 0 01-2.422.871 6.9 6.9 0 011.798.822 6.93 6.93 0 011.098 1.17c.375.423.7.896.974 1.394l3.345 6.448h-7.839l-3.694-6.846c-.475-.872-.874-1.444-1.249-1.718a2.97 2.97 0 00-1.697-.523h-.6v9.037H1.574v.025zm6.915-13.244h2.92c.625-.05 1.224-.15 1.823-.3.45-.074.849-.323 1.123-.696a2.21 2.21 0 00-.25-2.938c-.449-.373-1.322-.572-2.57-.572H8.487v4.506zM0 43.368l6.565-.423c.15 1.07.425 1.867.874 2.44.7.896 1.723 1.37 3.046 1.37.973 0 1.747-.225 2.272-.698.499-.398.798-.97.798-1.593 0-.598-.274-1.17-.749-1.544-.499-.448-1.672-.896-3.544-1.294-3.021-.672-5.193-1.569-6.466-2.714a5.402 5.402 0 01-1.947-4.307c0-1.145.35-2.29.998-3.236.75-1.07 1.773-1.917 2.996-2.39 1.323-.573 3.17-.872 5.492-.872 2.846 0 5.018.523 6.516 1.594 1.497 1.07 2.371 2.738 2.646 5.053l-6.49.374c-.176-.996-.525-1.718-1.1-2.19-.549-.474-1.322-.698-2.296-.673-.799 0-1.398.174-1.797.523-.4.299-.624.747-.6 1.245 0 .373.2.721.5.946.324.298 1.098.572 2.322.821 3.02.647 5.167 1.295 6.49 1.967 1.323.672 2.272 1.494 2.846 2.465.6.995.899 2.14.899 3.286a7.148 7.148 0 01-1.199 3.933 7.57 7.57 0 01-3.32 2.739c-1.423.622-3.22.946-5.367.946-3.795 0-6.416-.722-7.889-2.19C1.024 47.45.2 45.608 0 43.367z" fill="#fff"/><path d="M33.2 41.626l6.042 1.817c-.325 1.519-.999 2.963-1.922 4.233a8.361 8.361 0 01-3.245 2.564c-1.299.572-2.946.871-4.943.871-2.422 0-4.419-.348-5.942-1.045-1.548-.698-2.87-1.942-3.994-3.71-1.123-1.768-1.673-4.033-1.673-6.797 0-3.684.974-6.522 2.946-8.489 1.972-1.967 4.743-2.963 8.338-2.963 2.821 0 5.018.573 6.64 1.693 1.598 1.145 2.796 2.888 3.595 5.229l-6.09 1.344a5.386 5.386 0 00-.675-1.494 3.958 3.958 0 00-1.423-1.22c-.574-.299-1.223-.423-1.872-.423-1.573 0-2.771.622-3.595 1.892-.624.921-.949 2.39-.949 4.382 0 2.464.375 4.157 1.124 5.079.749.92 1.797 1.369 3.17 1.369 1.323 0 2.322-.374 2.996-1.096.674-.772 1.173-1.842 1.473-3.236zM47.306 28.48h6.89v7.792h7.54V28.48h6.94v22.257h-6.94v-9.013h-7.54v9.013h-6.89V28.48z" fill="#fff"/><path d="M67.727 39.61c0-3.636 1.023-6.474 3.045-8.49 2.022-2.017 4.868-3.038 8.488-3.038 3.72 0 6.565.996 8.587 2.988 2.023 1.992 3.021 4.78 3.021 8.365 0 2.614-.45 4.73-1.323 6.398a9.34 9.34 0 01-3.795 3.884c-1.672.921-3.744 1.394-6.216 1.394-2.52 0-4.593-.398-6.24-1.195a9.504 9.504 0 01-4.02-3.784c-1.023-1.743-1.547-3.909-1.547-6.523zm6.89.024c0 2.24.424 3.859 1.248 4.855.824.97 1.972 1.469 3.42 1.469 1.473 0 2.621-.473 3.445-1.444.824-.971 1.223-2.689 1.223-5.179 0-2.09-.424-3.634-1.273-4.58-.849-.971-1.997-1.444-3.445-1.444-1.273-.05-2.496.498-3.345 1.468-.849.971-1.273 2.59-1.273 4.855zm23.316-.025c0-3.635 1.023-6.473 3.045-8.49 2.022-2.016 4.868-3.037 8.488-3.037 3.72 0 6.591.996 8.588 2.988 1.997 1.992 3.02 4.78 3.02 8.365 0 2.614-.449 4.73-1.323 6.398a9.343 9.343 0 01-3.794 3.884c-1.673.921-3.745 1.394-6.216 1.394-2.522 0-4.594-.398-6.241-1.195a9.5 9.5 0 01-4.02-3.784c-1.023-1.743-1.547-3.909-1.547-6.523zm6.89.025c0 2.24.424 3.859 1.248 4.855.824.97 1.972 1.469 3.42 1.469 1.473 0 2.621-.473 3.445-1.444.824-.971 1.223-2.689 1.223-5.179 0-2.09-.424-3.634-1.273-4.58-.849-.971-1.997-1.444-3.445-1.444a4.199 4.199 0 00-3.345 1.468c-.849.971-1.273 2.59-1.273 4.855z" fill="#fff"/><path d="M120.35 28.48h6.89v16.78H138v5.477h-17.675V28.48h.025z" fill="#fff"/><path d="M112.722 27.2c6.931-5.221 9.071-14.068 4.779-19.761s-13.39-6.075-20.32-.855c-6.931 5.221-9.071 14.069-4.78 19.761 4.293 5.693 13.39 6.076 20.321.855z" stroke="#fff" stroke-width=".181" stroke-miterlimit="10"/><path d="M112.722 27.2c6.931-5.221 9.071-14.068 4.779-19.761s-13.39-6.075-20.32-.855c-6.931 5.221-9.071 14.069-4.78 19.761 4.293 5.693 13.39 6.076 20.321.855z" stroke="#fff" stroke-width=".181" stroke-miterlimit="10"/><path d="M97.957 15.261l2.496-1.743 3.071 4.357a8.67 8.67 0 011.223 2.266 2.895 2.895 0 01-.125 1.892 4.061 4.061 0 01-1.548 1.817c-.824.573-1.523.896-2.122.996-.574.1-1.173 0-1.722-.25a4.166 4.166 0 01-1.523-1.269l2.147-1.991c.175.273.399.522.649.722.175.124.374.199.599.199.175 0 .35-.075.474-.175a.823.823 0 00.4-.746 2.506 2.506 0 00-.524-1.17l-3.495-4.905zm7.489 2.763l2.272-1.792c.249.299.574.523.923.647a1.6 1.6 0 001.448-.274c.3-.199.549-.473.649-.821a.873.873 0 00-.549-1.096.732.732 0 00-.225-.05c-.299-.024-.824.1-1.597.424-1.274.523-2.272.722-3.021.647-.724-.075-1.398-.448-1.797-1.07a2.68 2.68 0 01-.475-1.42c0-.572.15-1.145.475-1.618a6.272 6.272 0 011.747-1.693c1.049-.722 1.972-1.07 2.771-1.07.799 0 1.548.373 2.247 1.145l-2.247 1.768c-.449-.573-1.298-.697-1.872-.25l-.075.075c-.25.15-.425.374-.524.648a.648.648 0 00.099.597c.1.125.25.224.425.224.2.025.549-.074 1.048-.299 1.249-.522 2.197-.821 2.846-.92.549-.1 1.124-.05 1.648.174.474.199.874.547 1.148.97a3.21 3.21 0 01.574 1.718 3.124 3.124 0 01-.499 1.818 6.09 6.09 0 01-1.697 1.693c-1.374.946-2.497 1.344-3.396 1.195a3.665 3.665 0 01-2.346-1.37z" fill="#fff"/></g><defs><clipPath id="clip0_3201_4748"><path fill="#fff" d="M0 0h138v51.111H0z"/></clipPath></defs></svg>