<svg width="40" height="40" fill="none" xmlns="http://www.w3.org/2000/svg"><g clip-path="url(#clip0_3201_4745)"><circle cx="20" cy="20" r="20" fill="red"/><path fill-rule="evenodd" clip-rule="evenodd" d="M31.3 12.378c.4.4.687.896.835 1.44.849 3.418.652 8.814.016 12.363a3.23 3.23 0 01-2.275 2.275C27.882 29 19.854 29 19.854 29s-8.027 0-10.022-.544a3.23 3.23 0 01-2.274-2.275c-.854-3.402-.62-8.802-.017-12.346a3.23 3.23 0 012.275-2.275c1.994-.543 10.022-.56 10.022-.56s8.027 0 10.022.544a3.23 3.23 0 011.44.834zM23.942 20l-6.659 3.857v-7.714L23.943 20z" fill="#fff"/></g><defs><clipPath id="clip0_3201_4745"><path fill="#fff" d="M0 0h40v40H0z"/></clipPath></defs></svg>